# xmcd
#
# Track frame offsets:
#	150
#	11025
#	20367
#	34810
#	45242
#	57287
#	70747
#	80650
#	98117
#	112892
#	123297
#	135205
#	152900
#	166580
#	181192
#
# Disc length: 2622
#
# Revision: 1
# Processed by: cddbd v1.5.1PL0 Copyright (c) Steve Scherf et al.
# Submitted via: audiograbber 1.82.02
# Normalized: r0:DSETVAR2
#
DISCID=ac0a3c0f
DTITLE=Various Artist - Hot Hits Country Christmas Vol-1
DYEAR=1990
DGENRE=xmas
TTITLE0=Willie Nelson - Pretty Paper
TTITLE1=Randy Travis - Santa Claus Is Coming To Town
TTITLE2=Crystal Gayle - White Christmas
TTITLE3=George Strait - Frosty The Snowman
TTITLE4=Johnny Cash - Little Drummer Boy
TTITLE5=Loretta Lynn - The First Noel
TTITLE6=Bobby Helms - Jingle Bell Rock
TTITLE7=Tanya Tucker - Winter Wonderland
TTITLE8=Reba McEntire - I'll Be Home For Christmas
TTITLE9=George Jones - Jingle Bells
TTITLE10=Emmy Lou Harris - Away In A Manger
TTITLE11=Oak Ridge Boys - Oh Holy Night
TTITLE12=Mark O'Conner - Sleigh Ride
TTITLE13=Gatlin Brothers - Do You Hear What I Hear
TTITLE14=Elmo and Patsy - Grandma Got Run Over By A Reindeer
EXTD=
EXTT0=
EXTT1=
EXTT2=
EXTT3=
EXTT4=
EXTT5=
EXTT6=
EXTT7=
EXTT8=
EXTT9=
EXTT10=
EXTT11=
EXTT12=
EXTT13=
EXTT14=
PLAYORDER=
